<svg xmlns="http://www.w3.org/2000/svg" xmlns:xlink="http://www.w3.org/1999/xlink" width="500" zoomAndPan="magnify" viewBox="0 0 375 374.999991" height="500" preserveAspectRatio="xMidYMid meet" version="1.2"><defs><clipPath id="4943cd4ced"><path d="M 17.25 0 L 357.75 0 C 362.324219 0 366.710938 1.816406 369.949219 5.050781 C 373.183594 8.289062 375 12.675781 375 17.25 L 375 357.75 C 375 362.324219 373.183594 366.710938 369.949219 369.949219 C 366.710938 373.183594 362.324219 375 357.75 375 L 17.25 375 C 12.675781 375 8.289062 373.183594 5.050781 369.949219 C 1.816406 366.710938 0 362.324219 0 357.75 L 0 17.25 C 0 12.675781 1.816406 8.289062 5.050781 5.050781 C 8.289062 1.816406 12.675781 0 17.25 0 Z M 17.25 0 "/></clipPath></defs><g id="825f49f9ab"><g clip-rule="nonzero" clip-path="url(#4943cd4ced)"><rect x="0" width="375" y="0" height="374.999991" style="fill:#ffffff;fill-opacity:1;stroke:none;"/></g><path style=" stroke:none;fill-rule:nonzero;fill:#147b51;fill-opacity:1;" d="M 111.085938 40.023438 C 111.777344 40.023438 112.46875 40.023438 113.160156 40.023438 C 114.648438 40.019531 116.132812 40.023438 117.621094 40.023438 C 119.832031 40.027344 122.042969 40.027344 124.257812 40.023438 C 127.980469 40.023438 131.703125 40.023438 135.429688 40.027344 C 139.113281 40.027344 142.800781 40.03125 146.488281 40.03125 L 149.988281 40.03125 C 158.738281 40.03125 167.488281 40.03125 176.238281 40.035156 C 184.496094 40.039062 192.757812 40.042969 201.015625 40.042969 L 206.226562 40.042969 C 213.894531 40.046875 221.558594 40.046875 229.222656 40.046875 C 232.453125 40.046875 235.679688 40.046875 238.90625 40.046875 C 243.0625 40.046875 247.222656 40.046875 251.382812 40.050781 C 253.578125 40.050781 255.773438 40.050781 257.96875 40.050781 C 259.613281 40.050781 261.257812 40.054688 262.902344 40.054688 C 263.5625 40.054688 264.222656 40.054688 264.886719 40.054688 C 270.242188 40.050781 275.601562 40.070312 280.910156 40.855469 L 281.921875 41 C 284.449219 41.375 286.914062 41.84375 289.371094 42.53125 L 289.894531 42.679688 C 294.625 44.007812 299.132812 45.9375 303.476562 48.230469 L 304.292969 48.652344 C 314.523438 54.050781 322.984375 62.734375 329.15625 72.417969 C 332.144531 77.195312 334.53125 82.210938 336.296875 87.558594 L 336.488281 88.140625 C 339.199219 96.488281 339.59375 104.96875 339.589844 113.675781 L 339.589844 115.621094 C 339.589844 117.207031 339.589844 118.792969 339.589844 120.378906 C 339.589844 122.28125 339.59375 124.183594 339.59375 126.085938 C 339.597656 130.027344 339.597656 133.96875 339.597656 137.914062 C 339.597656 141.835938 339.601562 145.761719 339.597656 149.691406 L 339.597656 150.351562 C 339.601562 157.902344 339.601562 165.453125 339.601562 173.003906 L 339.601562 175.121094 C 339.601562 182.441406 339.605469 189.761719 339.609375 197.078125 C 339.613281 206.199219 339.617188 215.316406 339.613281 224.433594 L 339.613281 225.089844 C 339.613281 228.5625 339.613281 232.035156 339.617188 235.507812 C 339.621094 239 339.621094 242.496094 339.617188 245.992188 C 339.617188 247.882812 339.617188 249.769531 339.621094 251.660156 C 339.621094 253.394531 339.621094 255.128906 339.621094 256.867188 C 339.617188 257.488281 339.621094 258.109375 339.621094 258.734375 C 339.628906 262.070312 339.539062 265.378906 339.308594 268.707031 L 339.242188 269.644531 C 338.878906 274.421875 337.929688 279.085938 336.566406 283.675781 L 336.386719 284.28125 C 334.363281 291.007812 331.152344 297.492188 327.074219 303.203125 L 326.476562 304.046875 C 322.578125 309.371094 317.953125 314.453125 312.605469 318.335938 C 312.148438 318.671875 311.699219 319.019531 311.257812 319.375 C 302.960938 325.847656 292.339844 329.980469 281.980469 331.546875 C 277.226562 332.164062 272.527344 332.34375 267.738281 332.332031 C 267.011719 332.332031 266.289062 332.332031 265.5625 332.335938 C 264 332.335938 262.441406 332.339844 260.878906 332.335938 C 258.558594 332.332031 256.234375 332.335938 253.914062 332.335938 C 249.765625 332.339844 245.617188 332.339844 241.464844 332.339844 C 237.835938 332.335938 234.203125 332.335938 230.574219 332.335938 L 229.839844 332.335938 L 226.894531 332.339844 C 217.707031 332.339844 208.515625 332.339844 199.328125 332.332031 C 191.179688 332.328125 183.03125 332.332031 174.882812 332.335938 C 164.730469 332.339844 154.578125 332.339844 144.421875 332.335938 L 143.691406 332.335938 C 140.066406 332.335938 136.4375 332.335938 132.8125 332.339844 C 128.683594 332.339844 124.554688 332.339844 120.425781 332.335938 C 118.121094 332.332031 115.816406 332.332031 113.511719 332.335938 C 111.964844 332.339844 110.421875 332.335938 108.875 332.335938 C 108 332.332031 107.121094 332.332031 106.246094 332.335938 C 100.226562 332.351562 94.1875 332.015625 88.324219 330.566406 L 87.300781 330.320312 C 75.9375 327.464844 65.398438 321.410156 56.929688 313.339844 C 54.59375 311.066406 52.390625 308.746094 50.46875 306.109375 C 50.105469 305.621094 49.742188 305.132812 49.371094 304.652344 C 47.640625 302.363281 46.097656 300.011719 44.703125 297.507812 L 44.320312 296.824219 C 40.671875 290.257812 38.039062 283.242188 36.769531 275.824219 L 36.644531 275.101562 C 35.839844 270.007812 35.671875 264.914062 35.679688 259.769531 L 35.679688 257.761719 C 35.675781 256.320312 35.675781 254.878906 35.675781 253.4375 C 35.675781 251.296875 35.675781 249.152344 35.671875 247.007812 C 35.667969 242.957031 35.667969 238.902344 35.667969 234.851562 C 35.667969 230.585938 35.667969 226.324219 35.667969 222.0625 C 35.664062 215.75 35.664062 209.433594 35.664062 203.121094 L 35.664062 202.398438 L 35.667969 196.609375 C 35.667969 189.085938 35.664062 181.5625 35.660156 174.039062 C 35.652344 164.667969 35.648438 155.296875 35.652344 145.921875 L 35.652344 145.25 C 35.652344 141.898438 35.652344 138.550781 35.648438 135.203125 C 35.644531 131.390625 35.644531 127.578125 35.648438 123.765625 C 35.652344 121.636719 35.648438 119.511719 35.644531 117.382812 C 35.644531 115.785156 35.644531 114.1875 35.648438 112.589844 C 35.648438 111.953125 35.648438 111.3125 35.648438 110.671875 C 35.605469 97.5 38.746094 85.441406 45.246094 73.996094 C 47.808594 69.6875 50.976562 65.652344 54.46875 62.0625 L 55.039062 61.472656 C 57.679688 58.742188 60.324219 56.132812 63.417969 53.925781 L 63.9375 53.554688 C 67.800781 50.785156 71.878906 48.378906 76.167969 46.332031 L 76.953125 45.953125 C 77.679688 45.609375 78.410156 45.289062 79.152344 44.972656 L 80.042969 44.597656 C 89.949219 40.570312 100.523438 40 111.085938 40.023438 M 74.8125 63.332031 C 69.707031 66.710938 64.960938 71.023438 61.25 75.898438 L 60.59375 76.753906 C 57.867188 80.398438 55.699219 84.457031 53.925781 88.644531 L 53.6875 89.203125 C 50.34375 97.21875 49.8125 105.53125 49.820312 114.09375 L 49.820312 116.027344 C 49.816406 117.609375 49.816406 119.1875 49.816406 120.765625 C 49.816406 122.660156 49.816406 124.554688 49.816406 126.449219 C 49.8125 130.375 49.8125 134.304688 49.8125 138.230469 C 49.8125 142.359375 49.8125 146.488281 49.808594 150.621094 C 49.808594 156.738281 49.804688 162.855469 49.804688 168.972656 L 49.804688 175.28125 C 49.804688 182.570312 49.804688 189.863281 49.800781 197.152344 C 49.792969 206.238281 49.792969 215.316406 49.792969 224.386719 L 49.792969 225.042969 C 49.792969 228.5 49.792969 231.957031 49.789062 235.414062 C 49.789062 238.898438 49.789062 242.378906 49.789062 245.859375 C 49.789062 247.742188 49.789062 249.625 49.789062 251.503906 C 49.785156 253.234375 49.785156 254.960938 49.789062 256.6875 C 49.789062 257.308594 49.789062 257.929688 49.789062 258.550781 C 49.773438 264.253906 49.839844 270.066406 51.246094 275.621094 L 51.496094 276.648438 C 52.65625 281.230469 54.40625 285.484375 56.636719 289.640625 C 56.796875 289.949219 56.957031 290.253906 57.125 290.570312 C 59.289062 294.5625 62.074219 298.1875 65.230469 301.449219 C 65.859375 302.121094 65.859375 302.121094 66.402344 302.933594 C 67.179688 303.050781 67.179688 303.050781 68.109375 303.011719 L 68.652344 303.003906 C 71.191406 302.941406 73.722656 302.703125 76.253906 302.476562 L 77.941406 302.328125 C 79.980469 302.148438 82.019531 301.960938 84.058594 301.769531 C 106.726562 299.664062 129.308594 296.601562 151.714844 292.570312 C 152.691406 292.398438 153.664062 292.226562 154.636719 292.054688 C 169.109375 289.535156 183.503906 286.210938 197.632812 282.214844 C 198.246094 282.042969 198.859375 281.871094 199.472656 281.703125 C 217.246094 276.777344 236.832031 270.820312 251.683594 259.566406 L 252.246094 259.144531 C 253.75 257.996094 255.183594 256.769531 256.550781 255.464844 C 256.769531 255.265625 256.984375 255.066406 257.210938 254.863281 C 260.371094 251.890625 262.714844 248.179688 264.152344 244.097656 C 264.898438 241.542969 264.964844 238.914062 264.519531 236.304688 C 263.578125 232.574219 261.515625 229.554688 258.992188 226.710938 L 258.277344 225.910156 C 257.066406 224.558594 255.804688 223.257812 254.496094 222 C 252.078125 219.597656 250.175781 216.882812 248.953125 213.691406 L 248.613281 212.808594 C 247.914062 210.238281 247.890625 207.363281 248.425781 204.753906 C 250.101562 199.347656 254.015625 195.34375 258.023438 191.542969 C 259.691406 190.019531 261.488281 188.683594 263.332031 187.378906 C 263.625 187.167969 263.917969 186.953125 264.210938 186.738281 C 276.125 178.21875 290.226562 172.972656 304.289062 169.207031 L 305.242188 168.949219 C 310.304688 167.605469 315.421875 166.539062 320.5625 165.519531 C 321.328125 165.363281 322.09375 165.210938 322.859375 165.058594 C 323.632812 164.902344 324.402344 164.75 325.175781 164.59375 C 325.5 163.441406 325.480469 162.320312 325.472656 161.128906 L 325.472656 160.394531 C 325.472656 159.578125 325.46875 158.761719 325.464844 157.945312 L 325.460938 156.191406 C 325.457031 154.601562 325.453125 153.011719 325.445312 151.417969 C 325.441406 150.425781 325.4375 149.429688 325.4375 148.433594 C 325.425781 145.3125 325.414062 142.195312 325.402344 139.074219 C 325.386719 135.484375 325.375 131.894531 325.367188 128.300781 C 325.359375 125.519531 325.347656 122.742188 325.335938 119.960938 C 325.328125 118.300781 325.324219 116.644531 325.320312 114.984375 C 325.316406 113.421875 325.3125 111.859375 325.300781 110.292969 C 325.296875 109.722656 325.296875 109.15625 325.296875 108.585938 C 325.296875 103.78125 324.859375 99.125 323.515625 94.496094 L 323.269531 93.636719 C 322.417969 90.78125 321.308594 88.074219 320.023438 85.390625 L 319.699219 84.71875 C 318.121094 81.460938 316.234375 78.511719 314.054688 75.625 L 313.484375 74.855469 C 307.769531 67.484375 300.070312 62.027344 291.558594 58.367188 C 291.011719 58.148438 290.460938 57.933594 289.914062 57.722656 L 288.933594 57.328125 C 281.835938 54.554688 274.164062 54.113281 266.628906 54.125 L 264.511719 54.121094 C 262.984375 54.121094 261.460938 54.121094 259.933594 54.121094 C 257.660156 54.121094 255.390625 54.121094 253.121094 54.117188 C 248.828125 54.113281 244.535156 54.113281 240.242188 54.113281 C 235.726562 54.117188 231.214844 54.113281 226.699219 54.113281 C 220.015625 54.109375 213.332031 54.109375 206.648438 54.109375 L 199.75 54.109375 C 191.78125 54.113281 183.8125 54.109375 175.84375 54.105469 C 165.683594 54.097656 155.527344 54.09375 145.367188 54.097656 C 141.820312 54.097656 138.273438 54.097656 134.722656 54.09375 C 130.6875 54.089844 126.648438 54.089844 122.609375 54.09375 C 120.355469 54.097656 118.101562 54.09375 115.84375 54.089844 C 114.152344 54.089844 112.464844 54.089844 110.773438 54.09375 C 110.09375 54.09375 109.414062 54.09375 108.734375 54.09375 C 96.597656 54.054688 85.074219 56.683594 74.8125 63.332031 M 283.1875 193.480469 C 280.5625 195.015625 278.289062 196.96875 276.078125 199.042969 L 275.554688 199.503906 C 273.867188 201.054688 272.769531 203.03125 271.890625 205.128906 C 271.558594 207.230469 271.542969 209.230469 272.144531 211.285156 C 273.722656 215.289062 277.15625 218.089844 280.171875 221.019531 C 283.335938 224.109375 286.316406 227.234375 288.625 231.035156 L 288.957031 231.578125 C 291.886719 236.453125 293.621094 241.714844 293.789062 247.425781 C 293.882812 254.707031 291.746094 261.523438 288.277344 267.863281 C 283.957031 275.507812 277.46875 282.902344 270.546875 288.273438 C 269.863281 288.8125 269.210938 289.371094 268.558594 289.945312 C 266.027344 292.167969 263.335938 294.167969 260.617188 296.152344 C 260.425781 296.292969 260.234375 296.429688 260.039062 296.574219 C 257.546875 298.386719 254.988281 300.09375 252.414062 301.78125 L 251.539062 302.351562 C 243.066406 307.867188 234.28125 312.847656 225.355469 317.582031 L 225.625 318.121094 C 231.566406 318.136719 237.507812 318.144531 243.445312 318.152344 C 246.203125 318.152344 248.964844 318.15625 251.722656 318.164062 C 254.128906 318.167969 256.539062 318.171875 258.945312 318.175781 C 260.214844 318.175781 261.488281 318.175781 262.761719 318.179688 C 274.816406 318.214844 286.558594 317.441406 297.304688 311.359375 C 305.574219 306.53125 312.890625 299.828125 317.773438 291.535156 C 324.828125 279.121094 325.527344 266.5625 325.457031 252.601562 C 325.449219 251.613281 325.449219 250.628906 325.445312 249.640625 C 325.4375 247.941406 325.433594 246.242188 325.425781 244.546875 C 325.414062 242.089844 325.40625 239.632812 325.398438 237.179688 C 325.382812 233.191406 325.367188 229.203125 325.351562 225.21875 C 325.332031 219.90625 325.3125 214.597656 325.289062 209.289062 C 325.253906 199.363281 325.214844 189.4375 325.175781 179.515625 C 311.300781 179.515625 295.082031 186.71875 283.1875 193.480469 "/><path style=" stroke:none;fill-rule:nonzero;fill:#147b51;fill-opacity:1;" d="M 146.128906 86.710938 C 148.65625 86.710938 151.183594 86.710938 153.710938 86.710938 C 156.195312 86.710938 158.675781 86.710938 161.160156 86.710938 C 162.625 86.710938 164.089844 86.710938 165.554688 86.710938 C 172.742188 86.707031 179.921875 86.789062 187.109375 87.019531 L 188.027344 87.046875 C 194.613281 87.261719 200.820312 88.113281 206.640625 91.359375 L 207.453125 91.804688 C 211.5 94.210938 214.570312 97.800781 216.960938 101.804688 C 220.199219 107.589844 221.0625 113.433594 221.183594 119.972656 L 221.214844 121.40625 C 221.3125 126.167969 221.328125 130.933594 221.324219 135.695312 C 221.324219 136.941406 221.328125 138.183594 221.328125 139.429688 C 221.332031 141.847656 221.332031 144.269531 221.332031 146.6875 C 221.332031 148.65625 221.332031 150.621094 221.332031 152.585938 C 221.335938 158.183594 221.335938 163.78125 221.335938 169.375 L 221.335938 171.191406 C 221.335938 176.074219 221.339844 180.957031 221.34375 185.839844 C 221.347656 190.871094 221.347656 195.90625 221.347656 200.941406 C 221.347656 203.757812 221.351562 206.578125 221.351562 209.394531 C 221.355469 211.789062 221.355469 214.179688 221.355469 216.570312 C 221.351562 217.789062 221.351562 219.007812 221.355469 220.226562 C 221.355469 221.34375 221.355469 222.460938 221.355469 223.578125 C 221.355469 223.980469 221.355469 224.382812 221.355469 224.785156 C 221.367188 228.203125 221.03125 230.890625 219.402344 233.925781 C 218.191406 235.9375 216.636719 237.621094 214.625 238.851562 C 212.726562 239.824219 210.980469 240.335938 208.839844 240.300781 L 207.894531 240.289062 L 207.183594 240.273438 C 207.183594 240.523438 207.1875 240.769531 207.191406 241.023438 C 207.199219 241.957031 207.207031 242.886719 207.210938 243.820312 C 207.214844 244.21875 207.21875 244.621094 207.222656 245.019531 C 207.261719 248.46875 207.0625 251.753906 205.554688 254.921875 C 204.089844 257.257812 202.101562 258.988281 199.714844 260.335938 C 197.835938 261.128906 196.070312 261.253906 194.058594 261.246094 L 193.335938 261.257812 C 190.964844 261.261719 188.882812 260.695312 186.820312 259.515625 C 184.84375 258.300781 183.390625 256.867188 182.265625 254.824219 C 179.898438 249.855469 180.871094 246.878906 180.871094 240.273438 L 112.515625 240.273438 L 112.515625 250.582031 C 111.5 253.878906 110.65625 256.203125 108.191406 258.515625 C 106.71875 259.765625 105.265625 260.546875 103.378906 261.007812 C 100.15625 261.558594 96.753906 261.753906 93.636719 260.636719 C 91.507812 259.683594 89.769531 258.203125 88.351562 256.355469 C 87.015625 254.351562 86.265625 252.417969 85.933594 250.039062 C 85.910156 249.273438 85.902344 248.507812 85.90625 247.746094 L 85.90625 247.09375 C 85.910156 246.414062 85.914062 245.734375 85.914062 245.054688 C 85.917969 244.59375 85.917969 244.128906 85.917969 243.664062 C 85.921875 242.535156 85.925781 241.40625 85.933594 240.273438 L 85.160156 240.289062 L 84.140625 240.300781 C 83.804688 240.304688 83.472656 240.308594 83.128906 240.3125 C 81.261719 240.238281 79.71875 239.664062 78.101562 238.75 C 76.121094 237.429688 74.683594 235.792969 73.457031 233.765625 C 70.746094 227.929688 71.789062 220.441406 71.792969 214.144531 C 71.792969 212.898438 71.792969 211.652344 71.792969 210.402344 C 71.789062 207.96875 71.789062 205.53125 71.792969 203.097656 C 71.792969 201.113281 71.792969 199.132812 71.792969 197.148438 L 71.792969 194.5625 C 71.789062 189.179688 71.792969 183.792969 71.792969 178.40625 C 71.792969 173.800781 71.792969 169.191406 71.792969 164.582031 C 71.789062 158.640625 71.789062 152.699219 71.792969 146.761719 L 71.792969 145.90625 C 71.792969 143.929688 71.792969 141.953125 71.792969 139.976562 C 71.789062 137.5625 71.789062 135.148438 71.792969 132.738281 C 71.792969 131.507812 71.792969 130.28125 71.792969 129.054688 C 71.777344 109.4375 71.777344 109.4375 75.957031 101.902344 C 77.207031 99.757812 78.757812 97.996094 80.507812 96.242188 L 81.195312 95.546875 C 84.472656 92.300781 87.988281 89.828125 92.480469 88.59375 C 95.976562 87.703125 99.464844 87.289062 103.0625 87.148438 L 103.933594 87.113281 C 106.75 87.003906 109.570312 86.921875 112.390625 86.867188 L 113.261719 86.851562 C 124.214844 86.644531 135.171875 86.707031 146.128906 86.710938 M 117.96875 100.953125 C 117.285156 101.480469 116.808594 102.042969 116.3125 102.75 C 115.988281 103.726562 115.972656 104.433594 116.042969 105.464844 C 116.398438 106.570312 116.695312 107.210938 117.550781 108.007812 C 118.769531 108.820312 119.753906 108.835938 121.203125 108.9375 C 123.25 109.039062 125.296875 109.03125 127.347656 109.027344 L 128.851562 109.03125 C 130.207031 109.035156 131.558594 109.035156 132.910156 109.035156 L 135.449219 109.035156 C 138.402344 109.039062 141.359375 109.039062 144.316406 109.039062 C 147.066406 109.039062 149.816406 109.042969 152.566406 109.046875 C 154.933594 109.050781 157.300781 109.050781 159.667969 109.050781 C 161.078125 109.050781 162.492188 109.050781 163.902344 109.054688 C 165.226562 109.058594 166.554688 109.058594 167.878906 109.054688 C 168.367188 109.054688 168.851562 109.054688 169.335938 109.058594 C 172.703125 109.105469 172.703125 109.105469 175.988281 108.445312 C 176.800781 107.773438 177.300781 107.15625 177.886719 106.277344 C 178.023438 105.183594 178.003906 104.117188 177.886719 103.023438 C 177.433594 102.066406 177.054688 101.589844 176.230469 100.953125 C 175.195312 100.460938 174.257812 100.46875 173.140625 100.476562 L 172.4375 100.472656 C 171.660156 100.46875 170.886719 100.472656 170.109375 100.476562 C 169.550781 100.472656 168.996094 100.472656 168.4375 100.472656 C 166.929688 100.46875 165.417969 100.46875 163.90625 100.472656 C 162.324219 100.472656 160.742188 100.472656 159.160156 100.46875 C 156.507812 100.46875 153.851562 100.46875 151.195312 100.476562 C 148.125 100.480469 145.054688 100.476562 141.984375 100.472656 C 139.347656 100.46875 136.714844 100.46875 134.078125 100.472656 C 132.503906 100.472656 130.929688 100.472656 129.355469 100.46875 C 127.875 100.46875 126.394531 100.46875 124.914062 100.472656 C 124.371094 100.476562 123.828125 100.472656 123.285156 100.472656 C 122.542969 100.472656 121.800781 100.472656 121.058594 100.476562 L 120.40625 100.472656 C 119.484375 100.480469 118.808594 100.554688 117.96875 100.953125 M 89.238281 122.160156 C 87.867188 123.085938 86.703125 124.375 85.894531 125.8125 C 84.289062 129.902344 85.074219 135.371094 85.074219 139.683594 C 85.074219 140.273438 85.074219 140.863281 85.070312 141.453125 C 85.070312 143.523438 85.070312 145.59375 85.070312 147.664062 C 85.070312 149.578125 85.066406 151.496094 85.0625 153.410156 C 85.058594 155.066406 85.058594 156.726562 85.058594 158.382812 C 85.058594 159.367188 85.054688 160.351562 85.054688 161.335938 C 84.742188 167.867188 84.742188 167.867188 86.238281 174.105469 C 87.023438 175.308594 88 176.269531 89.1875 177.074219 C 91.941406 178.195312 95.183594 177.925781 98.105469 177.921875 L 99.40625 177.925781 C 100.597656 177.925781 101.785156 177.925781 102.976562 177.925781 C 104.257812 177.925781 105.542969 177.929688 106.828125 177.929688 C 109.34375 177.929688 111.859375 177.933594 114.371094 177.933594 C 116.417969 177.933594 118.460938 177.933594 120.507812 177.933594 C 126.308594 177.9375 132.113281 177.9375 137.914062 177.9375 L 139.808594 177.9375 C 144.878906 177.9375 149.953125 177.941406 155.023438 177.945312 C 160.234375 177.949219 165.445312 177.949219 170.65625 177.949219 C 173.578125 177.949219 176.503906 177.949219 179.425781 177.953125 C 181.917969 177.957031 184.40625 177.957031 186.894531 177.953125 C 188.164062 177.953125 189.433594 177.953125 190.703125 177.957031 C 191.867188 177.957031 193.03125 177.957031 194.195312 177.953125 C 194.613281 177.953125 195.03125 177.953125 195.449219 177.957031 C 199.902344 178.0625 199.902344 178.0625 204.160156 176.996094 C 205.390625 176.269531 206.195312 175.371094 206.917969 174.148438 C 207.554688 172.695312 207.792969 171.339844 207.796875 169.757812 L 207.800781 169.214844 C 207.804688 168.613281 207.804688 168.015625 207.804688 167.417969 C 207.804688 166.984375 207.804688 166.554688 207.808594 166.121094 C 207.8125 164.953125 207.816406 163.785156 207.816406 162.617188 C 207.816406 161.886719 207.816406 161.15625 207.816406 160.425781 C 207.824219 157.871094 207.824219 155.316406 207.824219 152.765625 C 207.824219 150.386719 207.832031 148.011719 207.839844 145.636719 C 207.84375 143.59375 207.847656 141.550781 207.847656 139.507812 C 207.847656 138.289062 207.851562 137.070312 207.855469 135.851562 C 207.859375 134.703125 207.859375 133.558594 207.855469 132.410156 C 207.855469 131.992188 207.859375 131.574219 207.859375 131.152344 C 207.878906 128.835938 207.792969 126.792969 206.640625 124.722656 C 205.894531 123.53125 205.035156 122.769531 203.796875 122.105469 C 202.222656 121.347656 200.824219 121.257812 199.097656 121.25 L 198.140625 121.230469 C 197.269531 121.214844 196.398438 121.203125 195.527344 121.199219 C 194.96875 121.195312 194.414062 121.191406 193.855469 121.183594 C 191.113281 121.160156 188.367188 121.15625 185.625 121.15625 C 184.394531 121.15625 183.164062 121.15625 181.9375 121.152344 C 179.539062 121.152344 177.144531 121.152344 174.746094 121.152344 C 172.800781 121.152344 170.851562 121.148438 168.902344 121.148438 C 163.367188 121.144531 157.828125 121.144531 152.289062 121.144531 L 150.488281 121.144531 C 145.652344 121.144531 140.820312 121.144531 135.984375 121.140625 C 131.007812 121.136719 126.03125 121.132812 121.050781 121.132812 C 118.265625 121.132812 115.476562 121.132812 112.683594 121.128906 C 110.316406 121.128906 107.945312 121.128906 105.574219 121.128906 C 104.367188 121.128906 103.15625 121.128906 101.949219 121.128906 C 100.84375 121.125 99.734375 121.125 98.628906 121.128906 C 98.226562 121.128906 97.828125 121.128906 97.429688 121.125 C 93.234375 121.054688 93.234375 121.054688 89.238281 122.160156 M 93.273438 200.113281 C 92.363281 200.765625 91.566406 201.464844 90.816406 202.300781 L 90.136719 202.960938 C 89.046875 204.324219 88.464844 206.03125 88.101562 207.722656 C 87.789062 209.960938 87.910156 212.097656 88.664062 214.234375 C 89.636719 216.414062 90.875 217.992188 92.75 219.472656 C 94.691406 220.796875 96.597656 221.425781 98.933594 221.667969 C 101.414062 221.800781 103.503906 221.324219 105.734375 220.203125 C 106.332031 219.871094 106.816406 219.539062 107.363281 219.117188 L 108.039062 218.660156 C 109.871094 216.964844 110.859375 214.714844 111.589844 212.367188 C 111.984375 210.355469 111.863281 208.234375 111.261719 206.285156 C 110.339844 203.871094 108.984375 202.09375 107.035156 200.40625 C 105.542969 199.332031 103.75 198.574219 101.9375 198.230469 C 98.742188 197.996094 96.019531 198.363281 93.273438 200.113281 M 186.371094 200.46875 C 184.386719 201.988281 183.285156 203.785156 182.261719 206.039062 C 181.550781 208.054688 181.480469 210.222656 181.808594 212.324219 C 182.332031 214.722656 183.332031 216.679688 184.972656 218.507812 C 186.707031 220.113281 188.882812 220.980469 191.144531 221.558594 C 193.464844 221.988281 195.496094 221.691406 197.742188 221.03125 C 199.816406 220.269531 201.371094 219.132812 202.839844 217.488281 C 204.242188 215.683594 204.933594 213.769531 205.28125 211.523438 C 205.5 209.355469 205.195312 207.332031 204.46875 205.28125 C 203.578125 203.363281 202.34375 201.703125 200.671875 200.402344 C 198.421875 199.035156 196.324219 198.238281 193.703125 198.128906 C 191.0625 198.183594 188.578125 199.03125 186.371094 200.46875 M 288.492188 78.53125 C 294.089844 81.496094 298.785156 86.035156 302.191406 91.355469 C 305.316406 96.566406 306.945312 102.652344 307.082031 108.71875 C 307.152344 117.773438 303.761719 125.4375 299.457031 133.203125 C 298.542969 134.816406 297.59375 136.410156 296.640625 138 C 295.582031 139.785156 294.558594 141.589844 293.527344 143.394531 C 292.535156 145.117188 291.511719 146.824219 290.464844 148.511719 C 289.914062 149.402344 289.375 150.296875 288.835938 151.191406 C 286.527344 155.023438 284.160156 158.804688 281.691406 162.535156 C 281.203125 163.289062 280.71875 164.042969 280.242188 164.804688 C 276.546875 170.625 276.546875 170.625 273.910156 172.496094 C 273.058594 172.742188 272.359375 172.824219 271.484375 172.660156 C 270.027344 172.140625 269.105469 170.960938 268.109375 169.832031 C 265.558594 166.789062 263.527344 163.34375 261.433594 159.984375 L 261.085938 159.433594 C 260.574219 158.613281 260.070312 157.792969 259.570312 156.964844 C 259.183594 156.328125 258.792969 155.6875 258.402344 155.050781 C 255.261719 149.90625 252.15625 144.738281 249.101562 139.539062 C 248.835938 139.082031 248.566406 138.628906 248.296875 138.175781 C 246.058594 134.382812 243.945312 130.523438 241.902344 126.621094 L 241.574219 125.996094 C 238.378906 119.816406 237.574219 113.414062 237.832031 106.546875 L 237.855469 105.914062 C 238.066406 100.820312 239.710938 95.796875 242.386719 91.46875 C 242.585938 91.160156 242.785156 90.851562 242.988281 90.542969 L 243.519531 89.730469 C 247.027344 84.679688 251.753906 80.441406 257.328125 77.808594 C 267.511719 73.277344 278.527344 73.464844 288.492188 78.53125 M 263.058594 95.15625 C 260.5625 96.859375 258.605469 98.976562 257.210938 101.667969 C 256.863281 102.46875 256.550781 103.28125 256.277344 104.105469 L 256.015625 104.890625 C 255.179688 107.773438 255.195312 110.609375 255.90625 113.515625 C 256.90625 116.847656 258.460938 119.523438 260.890625 122.007812 C 263.082031 123.890625 265.792969 125.394531 268.628906 125.976562 C 271.679688 126.441406 275.128906 126.417969 278.027344 125.332031 C 280.558594 124.203125 282.519531 122.886719 284.488281 120.925781 L 285.023438 120.398438 C 286.875 118.441406 287.988281 115.976562 288.6875 113.390625 C 289.394531 110.371094 289.191406 107.59375 288.355469 104.628906 C 287.398438 101.507812 285.664062 98.953125 283.300781 96.714844 C 281.082031 94.835938 278.511719 93.46875 275.664062 92.839844 C 271.148438 92.230469 267 92.773438 263.058594 95.15625 "/></g></svg>